<mxfile host="app.diagrams.net" agent="Mozilla/5.0 (Windows NT 10.0; Win64; x64) AppleWebKit/537.36 (KHTML, like Gecko) Chrome/140.0.0.0 Safari/537.36" version="28.2.5">
  <diagram name="PÃ¡gina-1" id="adQES73GEVsUhegcDjZM">
    <mxGraphModel dx="1426" dy="743" grid="1" gridSize="10" guides="1" tooltips="1" connect="1" arrows="1" fold="1" page="1" pageScale="1" pageWidth="827" pageHeight="1169" math="0" shadow="0">
      <root>
        <mxCell id="0" />
        <mxCell id="1" parent="0" />
        <mxCell id="HqkIQgbD4-uxTm6xJdzG-1" value="" style="outlineConnect=0;dashed=0;verticalLabelPosition=bottom;verticalAlign=top;align=center;html=1;shape=mxgraph.aws3.volume;fillColor=#E05243;gradientColor=none;" vertex="1" parent="1">
          <mxGeometry x="230" y="260" width="52.5" height="75" as="geometry" />
        </mxCell>
        <mxCell id="HqkIQgbD4-uxTm6xJdzG-8" style="edgeStyle=orthogonalEdgeStyle;rounded=0;orthogonalLoop=1;jettySize=auto;html=1;" edge="1" parent="1" source="HqkIQgbD4-uxTm6xJdzG-2" target="HqkIQgbD4-uxTm6xJdzG-1">
          <mxGeometry relative="1" as="geometry">
            <Array as="points">
              <mxPoint x="103" y="310" />
            </Array>
          </mxGeometry>
        </mxCell>
        <mxCell id="HqkIQgbD4-uxTm6xJdzG-9" value="Envia Arquivo" style="edgeLabel;html=1;align=center;verticalAlign=middle;resizable=0;points=[];" vertex="1" connectable="0" parent="HqkIQgbD4-uxTm6xJdzG-8">
          <mxGeometry x="0.3638" y="-1" relative="1" as="geometry">
            <mxPoint as="offset" />
          </mxGeometry>
        </mxCell>
        <mxCell id="HqkIQgbD4-uxTm6xJdzG-2" value="" style="verticalLabelPosition=bottom;aspect=fixed;html=1;shape=mxgraph.salesforce.web;fillColorStyles=fillColor2,fillColor3,fillColor4;fillColor2=#032d60;fillColor3=#0d9dda;fillColor4=#ffffff;fillColor=none;strokeColor=none;" vertex="1" parent="1">
          <mxGeometry x="60" y="470" width="85.32" height="67.4" as="geometry" />
        </mxCell>
        <mxCell id="HqkIQgbD4-uxTm6xJdzG-10" value="" style="edgeStyle=orthogonalEdgeStyle;rounded=0;orthogonalLoop=1;jettySize=auto;html=1;" edge="1" parent="1" source="HqkIQgbD4-uxTm6xJdzG-11" target="HqkIQgbD4-uxTm6xJdzG-2">
          <mxGeometry relative="1" as="geometry">
            <mxPoint x="241.8800000000001" y="503.70000000000005" as="sourcePoint" />
          </mxGeometry>
        </mxCell>
        <mxCell id="HqkIQgbD4-uxTm6xJdzG-11" value="" style="verticalLabelPosition=bottom;sketch=0;html=1;fillColor=#A153A0;verticalAlign=top;align=center;pointerEvents=1;shape=mxgraph.cisco_safe.design.actor_1;" vertex="1" parent="1">
          <mxGeometry x="245" y="479" width="23.5" height="50" as="geometry" />
        </mxCell>
      </root>
    </mxGraphModel>
  </diagram>
</mxfile>
